<?xml version="1.0" encoding="utf-8"?>
<!-- Generator: Adobe Illustrator 24.1.1, SVG Export Plug-In . SVG Version: 6.00 Build 0)  -->
<svg version="1.1" id="Capa_1" xmlns="http://www.w3.org/2000/svg" xmlns:xlink="http://www.w3.org/1999/xlink" x="0px" y="0px"
	 viewBox="0 0 83.1 85" style="enable-background:new 0 0 83.1 85;" xml:space="preserve">
<style type="text/css">
	.st0{fill:#FFFFFF;}
	.st1{fill:#FEF5F5;}
	.st2{fill:#F8B1B0;stroke:#FEF5F5;stroke-width:0.9921;stroke-miterlimit:10;}
	.st3{fill:#F8B1B0;}
</style>
<path class="st1" d="M76.9,42.5c0,19.5-15.8,35.4-35.4,35.4h0C22,77.9,6.1,62.1,6.1,42.5v0C6.1,23,22,7.1,41.5,7.1h0
	C61.1,7.1,76.9,23,76.9,42.5L76.9,42.5z"/>
<path class="st3" d="M52,39.8l-0.6,4.7c-0.1,0.8-0.8,1.4-1.6,1.4h-7.7v19.8c-0.8,0.1-1.6,0.1-2.5,0.1c-1.9,0-3.7-0.2-5.4-0.5V45.9
	h-5.9c-0.5,0-1-0.4-1-1V39c0-0.5,0.4-1,1-1h5.9v-8.9c0-5.5,4.4-9.9,9.8-9.9H51c0.5,0,1,0.4,1,1v5.9c0,0.5-0.4,1-1,1h-4.9
	c-2.2,0-3.9,1.8-3.9,3.9V38h8.3C51.4,38,52.1,38.8,52,39.8z"/>
</svg>
