<?xml version="1.0" encoding="utf-8"?>
<!-- Generator: Adobe Illustrator 24.1.1, SVG Export Plug-In . SVG Version: 6.00 Build 0)  -->
<svg version="1.1" id="Capa_1" xmlns="http://www.w3.org/2000/svg" xmlns:xlink="http://www.w3.org/1999/xlink" x="0px" y="0px"
	 viewBox="0 0 83.1 85" style="enable-background:new 0 0 83.1 85;" xml:space="preserve">
<style type="text/css">
	.st0{fill:#FFFFFF;}
	.st1{fill:#FEF5F5;}
	.st2{fill:#F8B1B0;stroke:#FEF5F5;stroke-width:0.9921;stroke-miterlimit:10;}
	.st3{fill:#F8B1B0;}
</style>
<path class="st1" d="M76.9,42.5c0,19.5-15.8,35.4-35.4,35.4h0C22,77.9,6.1,62.1,6.1,42.5v0C6.1,23,22,7.1,41.5,7.1h0
	C61.1,7.1,76.9,23,76.9,42.5L76.9,42.5z"/>
<g>
	<circle class="st2" cx="29" cy="28.5" r="4.6"/>
	<path class="st2" d="M32.5,58.9h-6.9c-0.2,0-0.3-0.2-0.3-0.3V36.4c0-0.2,0.2-0.3,0.3-0.3h6.9c0.2,0,0.3,0.2,0.3,0.3v22.1
		C32.8,58.7,32.6,58.9,32.5,58.9z"/>
	<path class="st2" d="M58.6,44.4v12.9c0,0.8-0.7,1.5-1.5,1.5h-4.6c-0.8,0-1.5-0.7-1.5-1.5V46.7c0-2.1-1.7-3.8-3.8-3.8
		s-3.8,1.7-3.8,3.8v10.6c0,0.8-0.7,1.5-1.5,1.5h-4.6c-0.8,0-1.5-0.7-1.5-1.5V37.6c0-0.8,0.7-1.5,1.5-1.5h4.6c0.8,0,1.5,0.7,1.5,1.5
		v1c1.5-2,4-3.3,6.8-3.3C54.5,35.3,58.6,38.4,58.6,44.4z"/>
</g>
</svg>
