<?xml version="1.0" encoding="utf-8"?>
<!-- Generator: Adobe Illustrator 24.1.1, SVG Export Plug-In . SVG Version: 6.00 Build 0)  -->
<svg version="1.1" id="Capa_1" xmlns="http://www.w3.org/2000/svg" xmlns:xlink="http://www.w3.org/1999/xlink" x="0px" y="0px"
	 viewBox="0 0 83.1 85" style="enable-background:new 0 0 83.1 85;" xml:space="preserve">
<style type="text/css">
	.st0{fill:#FFFFFF;}
	.st1{fill:#FEF5F5;}
	.st2{fill:#F8B1B0;stroke:#FEF5F5;stroke-width:0.9921;stroke-miterlimit:10;}
	.st3{fill:#F8B1B0;}
</style>
<path class="st1" d="M80.3,42.5c0,19.5-15.8,35.4-35.4,35.4h0c-19.5,0-35.4-15.8-35.4-35.4v0C9.5,23,25.4,7.1,44.9,7.1h0
	C64.5,7.1,80.3,23,80.3,42.5L80.3,42.5z"/>
<path class="st3" d="M54.5,23.9H35.3c-4.9,0-9,4-9,9v19.2c0,4.9,4,9,9,9h19.2c4.9,0,9-4,9-9V32.9C63.5,28,59.5,23.9,54.5,23.9z
	 M60.3,51.5c0,3.5-2.9,6.4-6.4,6.4H36c-3.5,0-6.4-2.9-6.4-6.4V33.5c0-3.5,2.9-6.4,6.4-6.4h17.9c3.5,0,6.4,2.9,6.4,6.4V51.5z"/>
<path class="st3" d="M44.9,32.9c-5.3,0-9.6,4.3-9.6,9.6c0,5.3,4.3,9.6,9.6,9.6s9.6-4.3,9.6-9.6C54.5,37.2,50.2,32.9,44.9,32.9z
	 M44.9,48.9c-3.5,0-6.4-2.9-6.4-6.4s2.9-6.4,6.4-6.4s6.4,2.9,6.4,6.4S48.5,48.9,44.9,48.9z"/>
<circle class="st3" cx="55.2" cy="32.3" r="1.9"/>
</svg>
