<?xml version="1.0" encoding="utf-8"?>
<!-- Generator: Adobe Illustrator 24.1.1, SVG Export Plug-In . SVG Version: 6.00 Build 0)  -->
<svg version="1.1" id="Capa_1" xmlns="http://www.w3.org/2000/svg" xmlns:xlink="http://www.w3.org/1999/xlink" x="0px" y="0px"
	 viewBox="0 0 916.5 366" style="enable-background:new 0 0 916.5 366;" xml:space="preserve">
<style type="text/css">
	.st0{fill:#F8B1B0;}
	.st1{fill:#FFFFFF;}
</style>
<rect x="-13" y="-7.1" class="st0" width="942" height="373.1"/>
<g id="background">
	<path class="st1" d="M211,185.5c0,0-17.4-120.9,172.5-137c0,0-5,8.8-17.4,40.8c-19.6,50.5-39.7,73.2-119.6,93.1
		c-14.8,3.7-38.1,11.4-30.6,52.7c0,0-29.3-85.5,83.8-145.1C299.6,90.1,216.7,116.5,211,185.5z"/>
	<path class="st1" d="M22.1,111.9c0,0,5.2,18,22.6,42.9c22.3,32.1,58.8,34.6,85.5,33.6c45.2-1.7,52.4,20.4,52.4,20.4
		s-4.7-40.8-81.9-70c0,0,93,16.4,90.1,86.5C190.2,242.2,226,86.1,22.1,111.9z"/>
	<path class="st1" d="M184.9,236c0,0,2.9,24.3-22.1,47.8c0,0,30.4-16.4,28.9-49.8c0,0,15.1,79.3-62.8,82.4c0,0,2,0.8,16.2-41
		C155.9,243.5,184.9,236,184.9,236z"/>
	<path class="st1" d="M224.8,227c0,0,5.5,35.9,39.6,50.2c0,0-36.9-5.1-47.9-39.4c0,0,8.9,85.5,94.2,61.7c0,0-13.3-12.1-34.2-43.3
		C256.2,226.1,224.8,227,224.8,227z"/>
	<ellipse class="st1" cx="192.6" cy="130" rx="14.8" ry="14.8"/>
	<g>
		<path class="st1" d="M365,185.1c-2.3-0.1-4.5-0.6-6.5-1.5c-2-0.9-3.8-2.2-5.3-3.8c-1.5-1.6-2.6-3.4-3.5-5.6s-1.3-4.5-1.3-7
			c0-2.6,0.4-5,1.3-7.3c0.9-2.3,2-4.3,3.5-6.2s3.1-3.5,5-5s3.9-2.7,6-3.6c4.3-2,8.9-3.3,13.8-3.9s9.6-0.6,14.2,0.1
			c4.5,0.6,8.8,2.1,12.8,4.5c4,2.4,7,5.9,9.2,10.3c1.5,2.9,2.4,5.9,2.8,9.1c0.4,3.2,0.4,6.4-0.1,9.5c-0.5,3.1-1.3,6.2-2.6,9.1
			s-2.9,5.6-4.8,8c-3.3,4.1-7.2,7.2-11.5,9.4s-9,3.8-13.8,4.6c2.6,0.6,5,1.6,7.2,2.9c2.2,1.4,3.8,3.6,4.7,6.7c0.7,2.4,0.9,4.7,0.4,7
			c-0.5,2.3-1.4,4.4-2.6,6.4c-1.2,2-2.8,3.7-4.6,5.2c-1.8,1.5-3.7,2.6-5.7,3.5c-1.9,0.8-3.9,1.3-6,1.6c-2.1,0.3-4.2,0.4-6.3,0.3
			s-4.2-0.4-6.3-0.8c-2.1-0.4-4.1-1-6-1.7c-2.1-0.8-4.1-1.9-6-3.2s-3.5-3-4.9-4.8c-1.4-1.8-2.4-3.9-3.2-6.1c-0.8-2.3-1.1-4.6-1-7.1
			c0.1-2.4,0.7-4.7,1.6-6.7c0.2-0.2,0.5-0.3,0.8-0.4c0.3-0.1,0.5,0,0.8,0.3c0.3,0.4,0.3,0.8,0,1.3s-0.5,0.8-0.7,1.2
			c-1,2.1-1.5,4.3-1.3,6.6c0.1,2.4,0.6,4.6,1.5,6.6c1,2.2,2.3,4.1,3.9,5.6s3.4,2.8,5.4,3.8s4,1.6,6.3,2c2.2,0.4,4.4,0.5,6.6,0.4
			c2.1-0.1,4.1-0.4,6-1.1c2-0.6,3.8-1.5,5.6-2.7c1.8-1.1,3.4-2.5,4.8-4.1s2.7-3.4,3.6-5.4c0.5-1,0.9-2.1,1.2-3.3
			c0.3-1.2,0.5-2.3,0.5-3.4c0-1.1-0.1-2.2-0.5-3.3c-0.3-1.1-1-2.1-1.9-3c-0.7-0.7-1.4-1.3-2.3-1.7c-0.9-0.4-1.8-0.8-2.7-1.2
			c-1.1-0.3-2.1-0.5-3-0.5c-0.5-0.1-1-0.1-1.5,0.1c-0.5,0.1-1,0.1-1.5-0.1c-0.7-0.1-1-0.4-0.9-1c0-0.6,0.3-0.9,0.9-0.9v-0.1l0.3,0.1
			h0.9c1.3,0,2.5-0.1,3.8-0.2s2.5-0.4,3.7-0.7c4.2-1.2,8.1-3.3,11.7-6.4c3.5-3,6.2-6.7,8.2-11.1s3.3-8.9,4-13.5
			c0.5-4.8,0.1-9.4-1.4-13.9c-1.5-4.5-4.1-8.2-7.9-11c-1.9-1.4-4-2.5-6.2-3.3c-2.2-0.8-4.4-1.3-6.8-1.6c-2.3-0.3-4.7-0.4-7-0.2
			c-2.3,0.1-4.6,0.4-6.9,0.8c-2.6,0.4-5.2,1.2-7.9,2.2c-2.6,1-5.1,2.3-7.3,4c-2.2,1.6-4.1,3.6-5.7,5.9c-1.6,2.3-2.6,5-3.2,8
			c-0.5,2.9-0.3,5.8,0.5,8.6c0.8,2.8,2.2,5.2,4.4,7.1c1,0.9,2.1,1.6,3.3,2.2s2.4,1,3.7,1.3c0.4,0.1,0.8,0.1,1.2,0.1
			c0.4,0,0.7,0.1,1.1,0.1c0.3,0,0.6,0,1-0.1c0.3,0,0.6,0.1,0.9,0.3c0.3,0.3,0.4,0.7,0.2,1.1C365.7,184.9,365.4,185.1,365,185.1z
			 M384.8,158.5c-0.8,5-1.9,9.9-3.2,14.7c-1.4,4.8-2.7,9.6-4.1,14.4c-1.1,3.9-2.3,7.6-3.5,11.4c-1.2,3.7-2.5,7.4-3.7,11.2
			c-0.7,2.3-1.5,4.5-2.4,6.6c-0.9,2.2-1.8,4.3-2.7,6.4c-0.2,0.4-0.4,0.8-0.6,1.4c-0.2,0.5-0.4,1-0.7,1.5c-0.2,0.5-0.5,0.9-0.9,1.3
			c-0.4,0.4-0.8,0.5-1.2,0.5c-0.7,0.1-1.1-0.1-1.5-0.4c-0.3-0.3-0.5-0.7-0.5-1.2c-0.1-0.5-0.1-1,0-1.6s0.1-1.1,0.2-1.4
			c0.5-3.6,1.3-7.1,2.1-10.6c0.9-3.4,1.8-6.9,2.8-10.4c1.4-4.8,2.9-9.6,4.4-14.4c1.5-4.7,3.1-9.5,4.7-14.3c0.7-2.1,1.5-4.2,2.3-6.3
			c0.8-2.1,1.6-4.2,2.5-6.2c0.3-0.8,0.7-1.8,1.1-3c0.4-1.2,1.1-1.9,1.9-2.3c0.9-0.3,1.6-0.2,2.3,0.4
			C384.6,156.8,384.9,157.5,384.8,158.5z"/>
		<path class="st1" d="M460.6,207.1c-0.9,2.1-1.9,4.1-2.9,6c-1,1.9-2.2,3.8-3.5,5.5c-1.3,1.7-2.7,3.3-4.2,4.8s-3.3,2.7-5.2,3.7
			c-1.8,1-3.7,1.8-5.7,2.2s-4,0.6-6,0.6c-2.1-0.1-4-0.7-5.5-2c-1.6-1.3-2.9-2.9-3.8-4.8c-1.1-2.2-1.8-4.5-2.1-7
			c-0.3-2.4-0.3-4.9,0-7.4c0.3-2.5,0.8-5,1.5-7.4c0.8-2.4,1.6-4.6,2.7-6.7c1-1.8,2.1-3.6,3.5-5.5c1.3-1.8,2.8-3.5,4.5-4.9
			s3.5-2.6,5.4-3.5s4-1.3,6.1-1.3c2,0,3.7,0.6,5.1,1.6c1.4,1.1,2.5,2.5,3.4,4.1c0.8,1.6,1.3,3.4,1.5,5.4c0.2,2,0,3.9-0.5,5.6
			c-0.5,1.9-1.2,3.7-2.1,5.5c-0.9,1.8-2.1,3.4-3.4,4.8c-1.3,1.4-2.8,2.6-4.5,3.5c-1.6,0.9-3.4,1.4-5.4,1.5c-1.9,0.1-3.7-0.2-5.4-1
			c-1.7-0.8-3.1-2-4.1-3.6c-0.5,1.9-0.9,3.7-1.2,5.6s-0.5,3.8-0.5,5.7c0,1,0.1,2.1,0.2,3.1s0.4,2,0.8,2.9c0.4,0.9,0.9,1.6,1.6,2.3
			c0.7,0.6,1.5,1.1,2.5,1.4c2.1,0.5,4.1,0.5,6.2-0.1c2.1-0.6,4-1.5,5.8-2.8c1.8-1.3,3.5-2.7,5-4.4c1.5-1.7,2.9-3.4,4-5.1
			c0.9-1.4,1.6-2.7,2.3-4.2s1.4-2.9,2-4.4c0.2-0.5,0.4-1.1,0.8-1.6c0.3-0.6,0.8-0.7,1.5-0.3c0.4,0.1,0.5,0.4,0.3,0.8
			C461,206.3,460.8,206.7,460.6,207.1z M438,208.3c2.1-0.3,4-1.3,5.5-2.9c1.5-1.6,2.8-3.4,3.8-5.2c0.5-1,1-2.1,1.4-3
			c0.4-1,0.8-2,1.1-3.1c0.4-1.1,0.7-2.2,1-3.4c0.3-1.2,0.5-2.3,0.5-3.5c0-1.7-0.5-3.1-1.6-4.2s-2.4-1.5-4.1-1.4
			c-1,0.1-2,0.5-2.9,1.1c-0.9,0.6-1.7,1.3-2.4,2.1c-0.7,0.8-1.4,1.7-2,2.7c-0.6,1-1.1,1.9-1.6,2.7c-2.3,4.1-4.2,8.6-5.8,13.3
			l-0.2,0.5c0.5,1.4,1.5,2.6,2.8,3.4C435,208.1,436.4,208.5,438,208.3z"/>
		<path class="st1" d="M514.5,207c-1.1,2.1-2.2,4.1-3.3,6.2s-2.4,4.1-3.7,6.1s-2.8,3.8-4.3,5.5c-1.5,1.7-3.2,3.2-5.1,4.5
			c-0.7,0.5-1.4,0.9-2.1,1.3s-1.4,0.6-2.1,0.6c-0.7,0.1-1.4-0.1-2-0.3c-0.7-0.3-1.3-0.9-1.9-1.7c-0.7-0.8-1.2-1.8-1.6-2.9
			c-0.4-1.1-0.7-2.2-0.9-3.4c-0.2-1.2-0.3-2.4-0.3-3.6c0-1.2,0-2.3,0-3.4c0-0.4,0-0.9,0-1.3c0-0.4,0.1-0.9,0.1-1.4
			c-0.9,1.4-1.7,2.8-2.5,4.1s-1.7,2.6-2.6,3.9c-1,1.4-2.2,2.8-3.8,4.4c-1.5,1.6-3.2,2.7-4.9,3.6c-1.7,0.8-3.4,1.1-5.1,0.8
			c-1.7-0.3-3.1-1.6-4.4-3.9c-1.1-2.1-1.9-4.3-2.1-6.7c-0.3-2.4-0.3-4.8,0-7.3c0.3-2.5,0.8-4.9,1.5-7.3c0.7-2.4,1.5-4.6,2.3-6.6
			c0.9-1.9,1.9-3.9,3-6c1.1-2.1,2.5-4,4-5.7c1.5-1.7,3.1-3.2,5-4.4c1.8-1.2,3.8-2,6-2.4c2.3-0.4,4.4,0,6.3,1.2
			c1.9,1.2,3.1,2.9,3.8,5.3c0.1,0.5,0.2,1,0.3,1.6l0.2,1.6l1.1-1.9c0.4-0.8,1-1.6,1.6-2.6c0.6-1,1.4-1.9,2.1-2.7
			c0.8-0.8,1.6-1.5,2.5-2.1s1.9-0.8,2.9-0.7c0.8,0.1,1.1,0.4,1,1.1c-0.1,0.7-0.3,1.2-0.5,1.7c-0.4,1-0.7,1.9-1.1,2.9
			c-0.4,0.9-0.7,1.9-1,2.8c-1,2.8-1.9,5.5-2.8,8.3c-0.9,2.7-1.7,5.6-2.5,8.5l-1.5,5.2c-0.5,1.7-0.9,3.5-1.3,5.3
			c-0.2,0.9-0.4,1.9-0.6,2.9c-0.2,1-0.5,2-0.6,3c-0.2,1-0.3,2-0.4,3s0,2,0.1,2.9c0.2,1,0.7,1.6,1.5,1.7s1.6-0.1,2.4-0.4
			c1.4-0.6,2.7-1.7,3.9-3.1s2.2-2.8,3.1-4c1.1-1.5,2.1-3,3.1-4.6s1.9-3.2,2.7-4.9c0.5-0.9,1-1.8,1.4-2.6c0.5-0.8,0.9-1.7,1.4-2.6
			c0.1-0.3,0.3-0.4,0.5-0.5s0.5,0,0.7,0.1c0.2,0.1,0.4,0.3,0.5,0.6C514.6,206.5,514.6,206.8,514.5,207z M492.7,192.6
			c0.2-0.9,0.3-1.9,0.3-2.9s-0.1-2-0.4-3s-0.7-1.8-1.2-2.6c-0.5-0.8-1.2-1.4-2-1.7c-1.8-0.8-3.4-0.8-4.9,0.1
			c-1.5,0.9-2.8,2.1-3.8,3.6c-1.3,1.9-2.4,4-3.5,6.1s-2,4.3-2.8,6.4c-1,2.3-1.9,4.7-2.6,7c-0.8,2.4-1.5,4.8-2.2,7.2
			c-0.3,1.1-0.6,2.2-0.8,3.3c-0.2,1.1-0.5,2.2-0.6,3.3c-0.2,1.1-0.4,2.3-0.6,3.6c-0.1,1.3,0,2.4,0.6,3.5c0.5,1,1.2,1.5,2,1.6
			c0.8,0.1,1.7-0.1,2.5-0.4c0.9-0.4,1.7-0.9,2.5-1.5s1.5-1.2,2-1.7c1.6-1.7,3.1-3.5,4.5-5.6c1.3-2,2.6-4.1,3.8-6.1l2.7-5.2
			c0.5-2.6,1.1-5.1,1.8-7.6C490.8,197.4,491.6,195,492.7,192.6z"/>
		<path class="st1" d="M566.2,207c-1,2.1-2.1,4.1-3.2,6.2s-2.3,4.1-3.7,6.1s-2.8,3.8-4.3,5.5c-1.5,1.7-3.2,3.2-5.1,4.5
			c-0.7,0.5-1.5,0.9-2.3,1.3c-0.8,0.4-1.6,0.6-2.3,0.6s-1.5-0.1-2.2-0.5c-0.7-0.4-1.3-1-2-1.9c-1.2-1.8-1.9-3.9-2.1-6.2
			c-0.2-2.4-0.2-4.6-0.1-6.7l0.4-3.7c0.1-1.1,0.3-2.2,0.5-3.4c-1.2,2.2-2.3,4.4-3.6,6.5c-1.2,2.1-2.6,4.2-4,6.2
			c-1.3,1.7-2.8,3.6-4.5,5.5c-1.7,1.9-3.5,3.2-5.5,4c-1.6,0.6-3.1,0.6-4.4-0.3c-1.3-0.8-2.2-2.1-2.8-3.8c-0.7-2.3-1-4.6-0.9-7.1
			c0.1-2.4,0.4-4.8,0.9-7.1c0.5-2.5,1.1-5,1.8-7.4c0.7-2.4,1.5-4.8,2.5-7.2c0.8-2.3,1.8-4.6,2.7-6.9c1-2.3,2.1-4.5,3.3-6.7
			c0.5-0.9,1-1.8,1.5-2.6c0.5-0.8,1.1-1.6,1.8-2.4c0.7-0.7,1.4-0.9,2.3-0.6c0.9,0.3,1.4,1,1.5,1.9c0.1,0.8,0,1.7-0.3,2.7
			c-0.3,0.9-0.5,1.8-0.7,2.6c-0.6,2.4-1.3,4.8-2.2,7.4c-0.7,2.1-1.4,4.2-2.1,6.3c-0.7,2.2-1.4,4.3-2.1,6.4c-0.5,1.7-1.1,3.4-1.6,5.1
			c-0.5,1.7-1.1,3.4-1.5,5.2c-0.5,1.7-1,3.4-1.6,5.2s-0.8,3.5-0.7,5.2c0.1,1,0.4,1.5,1.1,1.5s1.5-0.1,2.3-0.5
			c0.8-0.4,1.7-0.9,2.4-1.4c0.8-0.6,1.3-1,1.5-1.3c1.6-1.7,3-3.5,4.4-5.6s2.6-4.1,3.8-6.1c2.3-3.9,4.5-8.1,6.5-12.7
			c0.7-2.4,1.4-4.9,2.3-7.2c0.9-2.4,1.8-4.7,2.8-7c0.2-0.4,0.5-1.2,0.9-2.4c0.4-1.1,0.9-2.2,1.5-3.1c0.6-1,1.2-1.7,2-2.1
			c0.7-0.4,1.5-0.2,2.3,0.8c0.3,0.4,0.5,0.8,0.5,1.3s0,1,0,1.5c-0.1,0.5-0.2,1-0.3,1.6s-0.2,1-0.3,1.4c-0.3,1.2-0.6,2.4-0.8,3.6
			s-0.5,2.4-0.8,3.6l-3.3,14.3l-2.3,10.1c-0.2,0.9-0.4,1.8-0.5,2.7c-0.2,0.9-0.3,1.8-0.5,2.7c-0.1,0.8-0.2,1.6-0.4,2.5
			s0,1.7,0.3,2.4c0.2,0.5,0.5,0.9,0.9,1c0.4,0.2,0.9,0.2,1.4,0.1c0.5-0.1,1-0.3,1.5-0.5c0.5-0.2,0.9-0.4,1.2-0.6
			c1.2-1,2.3-2.2,3.4-3.5s2-2.6,3-3.9c1-1.5,2-3,3-4.5c0.9-1.6,1.8-3.1,2.7-4.7l2.5-4.5c0.3-0.6,0.7-0.7,1.3-0.4
			C566.4,206,566.5,206.4,566.2,207z"/>
		<path class="st1" d="M592,207.8c-0.8,1.9-1.8,4-2.8,6.2s-2.1,4.3-3.4,6.3c-1.2,2-2.6,3.8-4.2,5.5c-1.5,1.6-3.3,2.9-5.3,3.9
			c-1.5,0.7-2.8,1-4.2,0.9s-2.5-1-3.5-2.7c-1.1-2-1.6-4.3-1.6-6.8s0.1-4.9,0.3-7.2c0.3-2.7,0.7-5.4,1.2-8.1c0.5-2.7,1-5.4,1.5-8.1
			c0.8-4.5,1.7-9,2.7-13.5s2-8.9,3.3-13.4l0.4-1.3h-12.5c-0.3,0-0.6-0.1-0.8-0.3c-0.2-0.2-0.4-0.4-0.4-0.7c0-0.3,0-0.5,0.1-0.7
			c0.1-0.2,0.4-0.3,0.8-0.3H577c1.2-3.8,2.4-7.4,3.8-10.9c1-2.3,2-4.4,3.2-6.4s2.7-3.9,4.4-5.5c0.4-0.4,1-0.8,1.6-1.4
			c0.7-0.5,1.4-0.9,2.1-1.3c0.8-0.3,1.5-0.5,2.3-0.5s1.4,0.2,2,0.8c0.7,0.7,1,1.6,0.9,2.5c-0.1,1-0.2,1.9-0.4,2.7
			c-0.3,1.2-0.6,2.4-1,3.6s-0.8,2.3-1.3,3.4c-0.8,2.2-1.7,4.4-2.7,6.5c-0.9,2.1-1.9,4.3-3,6.4h17.4c0.6,0,0.9,0.3,0.9,1
			s-0.3,1-0.9,1h-18.4c-1,2.2-2.1,4.4-3.2,6.5c-1.1,2.1-2.2,4.3-3.2,6.4l-2.2,4.3c-0.5,1.7-0.9,3.3-1.3,4.9
			c-0.4,1.6-0.8,3.3-1.2,4.9c-1,3.8-2.1,7.6-3.1,11.4s-1.8,7.7-2.3,11.6c-0.1,1-0.2,2-0.3,3s0,2,0.3,3c0.2,0.7,0.6,1.2,1,1.5
			s0.9,0.5,1.6,0.5c1.1,0.2,2.1,0,3-0.5s1.8-1.2,2.7-2s1.6-1.8,2.3-2.8c0.7-1,1.3-1.9,1.8-2.7c0.9-1.4,1.8-2.9,2.5-4.4
			c0.8-1.5,1.5-3,2.2-4.4c0.2-0.6,0.5-1.2,0.7-2c0.2-0.7,0.5-1.4,0.9-1.9c0.1-0.3,0.3-0.5,0.5-0.6c0.2-0.1,0.5-0.1,0.7,0.1
			c0.2,0.1,0.4,0.3,0.5,0.5C592.1,207.3,592.1,207.5,592,207.8z M587,169.5h-2.5c-0.6,2-1.2,4-1.8,5.9c-0.6,2-1.1,3.9-1.7,5.9
			c1-1.9,2-3.9,3-5.9C585.1,173.6,586,171.6,587,169.5z M592.7,155.8c0.4-1,0.7-1.9,1-2.9c0.3-1,0.6-2,0.9-3c0.1-0.5,0.2-1,0.4-1.5
			c0.1-0.5,0.2-1,0.3-1.5c0.1-0.4,0-0.8,0-1.2c-0.1-0.3-0.2-0.6-0.2-1c-0.1,0.1-0.4,0.3-0.9,0.6c-0.5,0.3-0.7,0.5-0.9,0.6
			c-0.7,0.9-1.2,1.9-1.6,3s-0.8,2.2-1.2,3.3c-0.8,2.3-1.7,4.6-2.5,6.9c-0.8,2.3-1.6,4.6-2.3,7c-0.2,0.6-0.4,1.1-0.5,1.4h2.6
			c0.8-1.9,1.7-3.9,2.5-5.9C591.2,159.8,592,157.8,592.7,155.8z"/>
		<path class="st1" d="M635.7,207.2c-0.8,1.9-1.9,3.7-3.1,5.3s-2.5,3.1-4,4.5c-1.5,1.4-3,2.7-4.6,3.9s-3.3,2.3-4.9,3.4
			c-0.5,1.6-1,3.2-1.4,4.7c-0.5,1.6-0.9,3.1-1.4,4.7c-1.5,4.8-3.1,9.6-4.8,14.4c-1.7,4.8-3.8,9.3-6.3,13.7c-1.1,1.9-2.3,3.8-3.8,5.5
			c-1.4,1.7-3.1,3.2-5,4.3c-2,1.1-4.1,1.6-6.4,1.4c-2.2-0.2-4.1-1.2-5.5-3.2c-1.1-1.5-1.8-3.1-2.1-4.9c-0.3-1.8-0.3-3.6-0.1-5.4
			s0.7-3.6,1.3-5.4s1.4-3.4,2.2-4.9c1.9-3.4,4.2-6.4,7-8.9c2.8-2.6,5.7-4.9,8.8-7.1c1.3-0.9,2.7-1.8,4-2.7c1.3-0.9,2.7-1.8,4-2.7
			c0.6-2.3,1.2-4.6,1.8-7c0.6-2.3,1.2-4.6,1.9-6.9c-0.8,1.2-1.8,2.5-3,3.9c-1.2,1.4-2.7,2.7-4.5,4s-3.5,2-5.4,2.3
			c-0.9,0.1-1.7,0.1-2.4-0.2c-0.7-0.3-1.3-0.7-1.9-1.3s-1-1.3-1.4-2s-0.6-1.6-0.8-2.4c-0.5-2.4-0.7-4.8-0.4-7.3s0.8-4.9,1.4-7.2
			c0.6-2.4,1.3-4.8,2.2-7.1c0.8-2.3,1.8-4.6,2.8-6.9c0.8-1.9,1.7-3.7,2.6-5.5c0.9-1.8,2.1-3.4,3.4-4.9c0.7-0.7,1.4-0.9,2.3-0.5
			s1.3,1,1.4,2c0.1,0.7,0.1,1.4-0.1,2.1c-0.2,0.7-0.4,1.4-0.5,2.1c-0.8,3.4-1.8,6.8-2.9,10.1s-2.2,6.6-3.3,9.9
			c-0.4,1.2-0.7,2.3-1.1,3.5c-0.4,1.2-0.7,2.4-1,3.7c-0.2,0.6-0.3,1.2-0.5,1.7s-0.3,1.2-0.4,1.7c-0.1,0.3-0.2,0.7-0.3,1.2
			s-0.2,0.9-0.3,1.4s-0.1,1,0,1.4s0.2,0.8,0.5,1.1c0.5,0.4,1,0.6,1.6,0.6s1.2-0.1,1.8-0.3c0.6-0.2,1.2-0.5,1.8-0.8
			c0.6-0.4,1-0.7,1.4-1.1c1.4-1.3,2.7-2.7,3.8-4.2s2.2-3.1,3.2-4.8c0.4-0.6,0.7-1.3,1-1.9c0.3-0.6,0.7-1.2,1-1.9l0.1-0.1
			c0.7-2.4,1.5-4.9,2.3-7.3c0.8-2.4,1.7-4.8,2.6-7.2c0.8-2.1,1.8-4.2,2.9-6.5c1.1-2.3,2.5-4.1,4.3-5.4c0.2-0.2,0.6-0.4,1-0.6
			s0.8-0.3,1.2-0.3c0.4,0,0.7,0,1,0.2s0.5,0.5,0.6,1c0.1,0.4,0,0.7-0.2,1.1c-0.2,0.3-0.5,0.5-1,0.6c0.1,0.1,0.1,0.4-0.2,0.9
			s-0.4,0.7-0.5,0.9c-0.7,1.7-1.2,3.5-1.6,5.3c-0.4,1.8-0.8,3.6-1.3,5.4c-1.2,4.6-2.3,9.1-3.5,13.6s-2.3,9-3.5,13.5l2.5-1.8
			c1.5-1.1,3-2.3,4.4-3.6c1.4-1.3,2.7-2.7,4-4.3c0.6-0.8,1.2-1.6,1.7-2.4c0.5-0.8,1-1.7,1.4-2.6c0.1-0.3,0.3-0.6,0.5-0.9
			s0.5-0.3,1-0.1C635.7,206.2,635.9,206.6,635.7,207.2z M592.8,243.4c-1.6,1.7-3.1,3.5-4.4,5.6c-1.3,2-2.3,4.2-3.1,6.4
			c-0.4,1.1-0.7,2.3-1,3.5c-0.3,1.2-0.4,2.4-0.4,3.6s0.2,2.4,0.6,3.5c0.4,1.2,1,2.2,1.8,3c0.8,0.8,1.7,1.4,2.6,1.5
			c1,0.2,1.9,0.2,2.9,0c0.9-0.2,1.9-0.6,2.8-1.3c0.9-0.6,1.7-1.3,2.4-2.1c1.6-1.7,2.8-3.7,3.6-5.9s1.6-4.4,2.2-6.6
			c1.2-4,2.2-8,3.2-11.9c1-4,2-7.9,3-11.9c-2.9,1.9-5.7,3.8-8.5,5.8C597.8,238.6,595.2,240.8,592.8,243.4z"/>
		<path class="st1" d="M716.4,163.8c1.7-1.4,2.8-3.2,3.4-5.3c0.5-2.1,0.3-4.2-0.7-6.2c-1-2-2.5-3.5-4.4-4.6c-1.9-1.1-3.9-1.4-6-1.1
			s-3.8,1.3-5.2,2.6c-1.3,1.4-2.3,2.9-3,4.8c-0.7,1.8-1.2,3.8-1.4,5.9c-0.2,2.1-0.3,4.1-0.1,6c0.3,5.1,0.9,10.1,1.7,15.1
			c0.8,5,1.5,10,1.9,15.1c0.4,5,0.5,10.1,0.2,15.2s-1.5,9.9-3.5,14.6s-5,8.3-8.8,11.1c-3.8,2.7-7.9,4.7-12.5,5.9
			c-2.2,0.6-4.5,1-6.9,1.4c-2.4,0.3-4.7,0.4-7,0.2c-2.3-0.2-4.6-0.6-6.8-1.3s-4.3-1.8-6.3-3.2c-2.7-1.9-4.8-4.3-6.4-7
			c-1.6-2.7-2.7-5.6-3.4-8.8c-0.7-3.2-0.9-6.4-0.7-9.8c0.2-3.4,0.8-6.6,1.8-9.8c1-3.2,2.3-6.1,4-8.9s3.7-5.1,6-7.1
			c1.7-1.5,3.5-2.7,5.5-3.7s4.1-1.7,6.3-2.2c2.2-0.4,4.4-0.6,6.6-0.5s4.4,0.5,6.5,1.2s4,1.8,5.8,3.2c1.8,1.4,3.2,3.2,4.4,5.3
			c1.2,2.1,1.9,4.2,2.3,6.3c0.1,0.5,0.2,0.9,0.2,1.2c0.1,0.5-0.1,0.9-0.6,1.1c-0.5,0.2-0.9,0-1.1-0.5c-0.2-0.4-0.4-0.9-0.4-1.4
			c0-0.6-0.1-1.1-0.2-1.5c-0.3-1.2-0.7-2.3-1.2-3.4c-0.5-1.1-1.1-2.1-1.7-3c-1.4-1.9-3-3.4-5-4.5c-1.9-1.1-3.9-1.9-6-2.3
			c-4.5-0.8-8.9-0.4-13.2,1.2s-7.8,4.2-10.8,7.8c-1.9,2.3-3.5,5-4.7,8c-1.2,3-2.1,6.2-2.5,9.4s-0.6,6.5-0.2,9.8s1.1,6.3,2.4,9.1
			s3,5.3,5.2,7.4c2.2,2.1,4.9,3.7,8.1,4.6c2.1,0.6,4.3,1,6.7,1c2.3,0,4.6-0.2,7-0.6c2.3-0.4,4.5-1.1,6.7-2s4.2-1.9,6.1-3.1
			c4.2-2.7,7.2-6.2,9-10.5c1.8-4.3,2.8-8.9,3.1-14c0.2-5,0-10-0.6-14.9s-1.2-9.9-1.6-14.9c-0.2-2.3-0.3-4.8-0.5-7.3
			c-0.2-2.5-0.2-5.1,0-7.6c0.1-2.5,0.4-5,1-7.4c0.5-2.4,1.3-4.7,2.4-6.8c1-1.8,2.2-3.4,3.7-4.8c1.5-1.4,3.2-2.4,5-3.1
			c1.8-0.7,3.6-0.9,5.5-0.8c1.9,0.2,3.7,0.9,5.5,2.2c1.8,1.3,3.1,3,4.1,5.1c1,2.1,1.3,4.3,0.9,6.5c-0.2,1.1-0.5,2.1-1,3.1
			s-1,1.9-1.7,2.8c-0.2,0.3-0.5,0.6-0.8,0.9c-0.3,0.3-0.6,0.5-1,0.5c-0.4,0-0.7-0.2-0.8-0.6C716,164.5,716.1,164.1,716.4,163.8z"/>
		<path class="st1" d="M729,181.2c0.1,1.8,0.1,3.6-0.2,5.4s-0.5,3.6-0.8,5.3c-0.2,1.1-0.5,2.2-0.6,3.3c-0.2,1.1-0.4,2.2-0.5,3.3
			c1-1.7,2-3.4,3-5.1s2.1-3.3,3.3-4.9c1-1.4,2.2-2.8,3.8-4.4s3.2-2.7,5-3.6c1.7-0.8,3.4-1.1,5.1-0.8c1.7,0.3,3.1,1.6,4.4,3.9
			c1.1,2.1,1.8,4.3,2,6.7c0.3,2.4,0.3,4.8,0,7.3s-0.8,4.9-1.5,7.3c-0.7,2.4-1.5,4.6-2.4,6.6c-0.8,1.9-1.8,3.9-3,6
			c-1.1,2.1-2.4,4-3.9,5.7c-1.5,1.7-3.1,3.2-5,4.4s-3.8,2-6,2.4c-2.3,0.4-4.4,0-6.3-1.2c-1.9-1.2-3.2-2.9-3.8-5.3
			c-0.1-0.3-0.2-0.5-0.2-0.7c-1,3.7-2,7.3-3,10.9s-2.1,7.3-3.2,10.9c-0.8,2.5-1.6,5-2.4,7.5c-0.8,2.5-1.7,5-2.6,7.4
			c-0.8,2.3-1.8,4.5-2.7,6.7c-1,2.2-2.2,4.3-3.5,6.3c-0.5,0.8-1.2,1.6-1.9,2.6c-0.7,0.9-1.5,1.8-2.3,2.6s-1.7,1.4-2.6,2
			c-0.9,0.5-1.9,0.8-2.9,0.8c-1,0-1.8-0.3-2.3-0.8c-0.5-0.5-0.8-1.2-1-1.9s-0.2-1.6-0.1-2.5c0.1-0.9,0.2-1.7,0.4-2.4
			c0.5-2.5,1.3-4.8,2.1-7.1c0.9-2.3,1.8-4.5,2.8-6.8c1-2.5,2.1-4.8,3.2-7.1c1.1-2.3,2.2-4.7,3.4-7.1c1.6-3.4,3.2-6.7,4.9-9.9
			c1.7-3.3,3.3-6.6,5-9.9c0.6-2.3,1.2-4.5,1.7-6.8l1.6-6.8c0.4-1.8,0.8-3.6,1.3-5.4c0.4-1.8,0.9-3.5,1.4-5.3
			c0.7-2.4,1.4-4.9,2.1-7.4c0.8-2.5,1.7-4.9,2.7-7.3c0.4-1,1-2.2,1.8-3.5l1.5-2.1c0.3-0.3,0.7-0.5,1.2-0.6
			C728.7,180.2,728.9,180.5,729,181.2z M704.4,244.4c-1.1,2.4-2.2,4.8-3.2,7.1s-2.1,4.8-3,7.2c-0.9,2.3-1.8,4.6-2.6,7
			c-0.8,2.4-1.5,4.8-2,7.2c-0.1,0.3-0.1,0.6-0.2,1.2c-0.1,0.5-0.2,1-0.2,1.6c0,0.5,0,1,0.1,1.5s0.3,0.7,0.7,0.7
			c0.4,0.1,0.8-0.1,1.2-0.6c0.4-0.5,0.7-1,0.9-1.3c1.2-1.9,2.1-3.9,2.8-6s1.3-4.3,2.1-6.3c2.1-5.5,4-11,5.8-16.5
			c1.7-5.5,3.3-11.1,4.9-16.8C709,235,706.6,239.7,704.4,244.4z M726,227.4c1.8,0.8,3.4,0.8,4.9-0.1c1.5-0.9,2.8-2.1,3.8-3.6
			c1.3-1.9,2.4-4,3.5-6.1s2-4.3,2.8-6.4c0.9-2.3,1.8-4.6,2.6-7c0.8-2.4,1.6-4.8,2.2-7.2c0.3-1.1,0.6-2.2,0.8-3.3
			c0.2-1.1,0.4-2.2,0.7-3.3c0.2-1.1,0.4-2.3,0.6-3.6c0.2-1.3,0-2.4-0.6-3.5c-0.5-1-1.2-1.5-2-1.6c-0.8-0.1-1.7,0.1-2.5,0.4
			c-0.9,0.4-1.7,0.9-2.5,1.6c-0.8,0.6-1.5,1.2-2,1.6c-1.6,1.7-3.1,3.5-4.5,5.6s-2.6,4.1-3.8,6.1c-0.5,1-1.1,2.1-1.6,3
			c-0.5,1-1.1,2.1-1.5,3.1c-0.2,0.5-0.5,1-0.6,1.6c-0.2,0.5-0.4,1-0.6,1.6l-2,8.4l-1,4.1c-0.1,1.7,0.1,3.4,0.6,5
			C723.6,225.5,724.6,226.7,726,227.4z"/>
		<path class="st1" d="M814,207c-1.1,2.1-2.2,4.1-3.3,6.2c-1.1,2.1-2.3,4.1-3.7,6.1s-2.8,3.8-4.3,5.5c-1.5,1.7-3.2,3.2-5.1,4.5
			c-0.7,0.5-1.4,0.9-2.1,1.3c-0.7,0.4-1.4,0.6-2.1,0.6c-0.7,0.1-1.4-0.1-2-0.3c-0.7-0.3-1.3-0.9-1.9-1.7c-0.7-0.8-1.2-1.8-1.6-2.9
			c-0.4-1.1-0.7-2.2-0.9-3.4c-0.2-1.2-0.3-2.4-0.3-3.6c0-1.2,0-2.3,0-3.4c0-0.4,0-0.9,0-1.3c0-0.4,0.1-0.9,0.1-1.4
			c-0.8,1.4-1.7,2.8-2.5,4.1s-1.7,2.6-2.6,3.9c-1,1.4-2.2,2.8-3.8,4.4c-1.5,1.6-3.2,2.7-4.9,3.6c-1.7,0.8-3.4,1.1-5.1,0.8
			c-1.7-0.3-3.1-1.6-4.4-3.9c-1.2-2.1-1.9-4.3-2.1-6.7c-0.3-2.4-0.3-4.8,0-7.3c0.3-2.5,0.8-4.9,1.5-7.3s1.5-4.6,2.3-6.6
			c0.8-1.9,1.8-3.9,3-6c1.2-2.1,2.5-4,4-5.7c1.5-1.7,3.1-3.2,5-4.4c1.8-1.2,3.8-2,6-2.4c2.3-0.4,4.4,0,6.3,1.2
			c1.9,1.2,3.2,2.9,3.8,5.3c0.1,0.5,0.2,1,0.3,1.6l0.2,1.6l1.1-1.9c0.4-0.8,1-1.6,1.6-2.6s1.3-1.9,2.1-2.7c0.8-0.8,1.6-1.5,2.5-2.1
			s1.9-0.8,2.9-0.7c0.8,0.1,1.1,0.4,1,1.1c-0.2,0.7-0.3,1.2-0.5,1.7c-0.4,1-0.7,1.9-1.1,2.9c-0.4,0.9-0.7,1.9-1,2.8
			c-1,2.8-1.9,5.5-2.8,8.3c-0.9,2.7-1.7,5.6-2.5,8.5l-1.5,5.2c-0.5,1.7-0.9,3.5-1.3,5.3c-0.2,0.9-0.4,1.9-0.6,2.9s-0.5,2-0.6,3
			c-0.2,1-0.3,2-0.4,3s0,2,0.1,2.9c0.2,1,0.7,1.6,1.5,1.7s1.6-0.1,2.4-0.4c1.4-0.6,2.7-1.7,3.9-3.1s2.2-2.8,3.1-4
			c1.1-1.5,2.1-3,3.1-4.6c1-1.6,1.9-3.2,2.7-4.9c0.5-0.9,1-1.8,1.4-2.6c0.5-0.8,0.9-1.7,1.4-2.6c0.1-0.3,0.3-0.4,0.5-0.5
			s0.5,0,0.7,0.1c0.2,0.1,0.4,0.3,0.5,0.6C814.1,206.5,814.1,206.8,814,207z M792.2,192.6c0.2-0.9,0.3-1.9,0.3-2.9s-0.1-2-0.4-3
			c-0.3-1-0.7-1.8-1.2-2.6c-0.5-0.8-1.2-1.4-2-1.7c-1.8-0.8-3.4-0.8-4.9,0.1c-1.5,0.9-2.8,2.1-3.8,3.6c-1.3,1.9-2.4,4-3.5,6.1
			s-2,4.3-2.8,6.4c-1,2.3-1.8,4.7-2.6,7c-0.8,2.4-1.5,4.8-2.2,7.2c-0.3,1.1-0.6,2.2-0.8,3.3c-0.2,1.1-0.5,2.2-0.6,3.3
			c-0.2,1.1-0.4,2.3-0.6,3.6c-0.2,1.3,0,2.4,0.6,3.5c0.5,1,1.2,1.5,2,1.6c0.8,0.1,1.7-0.1,2.5-0.4c0.9-0.4,1.7-0.9,2.5-1.5
			c0.8-0.6,1.5-1.2,2-1.7c1.6-1.7,3.1-3.5,4.5-5.6s2.6-4.1,3.8-6.1l2.7-5.2c0.5-2.6,1.1-5.1,1.8-7.6
			C790.3,197.4,791.2,195,792.2,192.6z"/>
	</g>
	<g>
		<path class="st1" d="M350.7,265.1c-5.9,0-10.8,4.8-10.8,10.8s4.8,10.8,10.8,10.8s10.8-4.8,10.8-10.8S356.7,265.1,350.7,265.1z"/>
		<path class="st1" d="M404.2,284.3c-3.9,0-7,3.1-7,7s3.1,7,7,7s7-3.1,7-7C411.2,287.4,408.1,284.3,404.2,284.3z"/>
		<path class="st1" d="M478.6,286.5c-3,0-5.5,2.4-5.5,5.5s2.4,5.5,5.5,5.5c3,0,5.5-2.4,5.5-5.5S481.7,286.5,478.6,286.5z"/>
		<path class="st1" d="M547.6,282.5c-3,0-5.5,2.4-5.5,5.5c0,3,2.4,5.5,5.5,5.5s5.5-2.4,5.5-5.5C553.1,284.9,550.6,282.5,547.6,282.5
			z"/>
		<path class="st1" d="M621.2,309.5c-3.2,0-5.7,2.6-5.7,5.7s2.6,5.7,5.7,5.7s5.7-2.6,5.7-5.7C626.9,312,624.3,309.5,621.2,309.5z"/>
		<path class="st1" d="M687.7,315.9c-2.4,0-4.3,1.9-4.3,4.3c0,2.4,1.9,4.3,4.3,4.3c2.4,0,4.3-1.9,4.3-4.3
			C692,317.8,690.1,315.9,687.7,315.9z"/>
		<path class="st1" d="M768.3,308.9c-2.4,0-4.3,1.9-4.3,4.3c0,2.4,1.9,4.3,4.3,4.3c2.4,0,4.3-1.9,4.3-4.3
			C772.6,310.8,770.7,308.9,768.3,308.9z"/>
		<circle class="st1" cx="826.8" cy="294" r="4.3"/>
		<circle class="st1" cx="873.1" cy="246.6" r="4.3"/>
		<path class="st1" d="M877.2,179.9c-2.4,0-4.3,1.9-4.3,4.3c0,2.4,1.9,4.3,4.3,4.3c2.4,0,4.3-1.9,4.3-4.3S879.5,179.9,877.2,179.9z"
			/>
		<circle class="st1" cx="840.9" cy="138.8" r="4.3"/>
		<circle class="st1" cx="792.5" cy="153.9" r="4.3"/>
	</g>
</g>
<g id="Logo">
</g>
</svg>
