<?xml version="1.0" encoding="utf-8"?>
<!-- Generator: Adobe Illustrator 24.1.1, SVG Export Plug-In . SVG Version: 6.00 Build 0)  -->
<svg version="1.1" id="Capa_1" xmlns="http://www.w3.org/2000/svg" xmlns:xlink="http://www.w3.org/1999/xlink" x="0px" y="0px"
	 viewBox="0 0 83.1 85" style="enable-background:new 0 0 83.1 85;" xml:space="preserve">
<style type="text/css">
	.st0{fill:#FFFFFF;}
	.st1{fill:#FEF5F5;}
	.st2{fill:#F8B1B0;stroke:#FEF5F5;stroke-width:0.9921;stroke-miterlimit:10;}
	.st3{fill:#F8B1B0;}
</style>
<path class="st1" d="M76.9,42.5c0,19.5-15.8,35.4-35.4,35.4h0C22,77.9,6.1,62.1,6.1,42.5v0C6.1,23,22,7.1,41.5,7.1h0
	C61.1,7.1,76.9,23,76.9,42.5L76.9,42.5z"/>
<path class="st3" d="M46.6,39.3L61,23.9h-5.4L44.3,36l-8.6-12H20.8l15.1,21L20.8,61.1h5.4l12-12.8l9.2,12.8h14.9L46.6,39.3z
	 M28.5,27.9h5.2l20.9,29.3h-5.2L28.5,27.9z"/>
</svg>
