<?xml version="1.0" encoding="utf-8"?>
<!-- Generator: Adobe Illustrator 24.1.1, SVG Export Plug-In . SVG Version: 6.00 Build 0)  -->
<svg version="1.1" xmlns="http://www.w3.org/2000/svg" xmlns:xlink="http://www.w3.org/1999/xlink" x="0px" y="0px"
	 viewBox="0 0 916.45 365.98" style="enable-background:new 0 0 916.45 365.98;" xml:space="preserve">
<style type="text/css">
	.st0{fill:#F8B1B0;}
	.st1{fill:#444141;}
</style>
<g id="background">
	<path class="st0" d="M210.96,185.54c0,0-17.44-120.85,172.47-136.99c0,0-4.96,8.81-17.38,40.81
		c-19.61,50.51-39.74,73.17-119.62,93.12c-14.78,3.69-38.09,11.4-30.65,52.69c0,0-29.26-85.46,83.79-145.07
		C299.58,90.1,216.72,116.5,210.96,185.54z"/>
	<path class="st0" d="M22.15,111.88c0,0,5.22,18.01,22.57,42.93c22.32,32.08,58.79,34.64,85.51,33.62
		c45.22-1.74,52.36,20.44,52.36,20.44s-4.74-40.82-81.89-69.97c0,0,93.02,16.45,90.15,86.46
		C190.17,242.19,226.02,86.14,22.15,111.88z"/>
	<path class="st0" d="M184.86,236c0,0,2.88,24.33-22.07,47.8c0,0,30.45-16.41,28.92-49.82c0,0,15.14,79.31-62.81,82.42
		c0,0,2.01,0.77,16.17-40.95C155.91,243.5,184.86,236,184.86,236z"/>
	<path class="st0" d="M224.75,227.03c0,0,5.53,35.89,39.56,50.16c0,0-36.9-5.08-47.95-39.35c0,0,8.85,85.53,94.21,61.71
		c0,0-13.34-12.13-34.18-43.27C256.17,226.09,224.75,227.03,224.75,227.03z"/>
	
		<ellipse transform="matrix(0.7871 -0.6169 0.6169 0.7871 -39.1727 146.4588)" class="st0" cx="192.56" cy="129.97" rx="14.78" ry="14.78"/>
	<g>
		<path class="st1" d="M365.02,185.07c-2.3-0.06-4.46-0.56-6.49-1.5c-2.03-0.93-3.78-2.19-5.27-3.77c-1.48-1.58-2.65-3.45-3.5-5.61
			c-0.85-2.16-1.27-4.49-1.27-7.01c0-2.58,0.44-4.99,1.32-7.25c0.88-2.25,2.03-4.32,3.45-6.19c1.42-1.87,3.07-3.53,4.95-4.98
			c1.88-1.45,3.87-2.66,5.99-3.62c4.3-2,8.88-3.29,13.75-3.87c4.87-0.58,9.61-0.55,14.21,0.1c4.54,0.58,8.79,2.09,12.76,4.54
			c3.96,2.45,7.04,5.9,9.22,10.34c1.45,2.9,2.37,5.94,2.77,9.13c0.39,3.19,0.36,6.35-0.09,9.47c-0.45,3.13-1.32,6.17-2.59,9.13
			c-1.27,2.96-2.88,5.64-4.81,8.02c-3.33,4.06-7.17,7.2-11.53,9.42c-4.36,2.22-8.96,3.75-13.8,4.59c2.6,0.58,5.01,1.55,7.22,2.9
			c2.21,1.35,3.77,3.58,4.68,6.67c0.73,2.38,0.85,4.72,0.36,7.01c-0.49,2.29-1.35,4.41-2.59,6.38c-1.24,1.96-2.77,3.69-4.58,5.17
			c-1.82,1.48-3.72,2.64-5.72,3.48c-1.88,0.77-3.86,1.3-5.95,1.59c-2.09,0.29-4.19,0.39-6.31,0.29c-2.12-0.1-4.22-0.36-6.31-0.77
			c-2.09-0.42-4.07-0.98-5.95-1.69c-2.12-0.77-4.13-1.85-6.04-3.24c-1.91-1.39-3.54-3-4.9-4.83c-1.36-1.84-2.42-3.88-3.18-6.14
			c-0.76-2.25-1.08-4.64-0.95-7.15c0.12-2.45,0.67-4.67,1.63-6.67c0.24-0.19,0.5-0.34,0.77-0.43c0.27-0.1,0.53,0.02,0.77,0.34
			c0.3,0.39,0.3,0.81,0,1.26c-0.3,0.45-0.54,0.84-0.73,1.16c-1.03,2.06-1.47,4.27-1.32,6.62c0.15,2.35,0.65,4.56,1.5,6.62
			c0.97,2.19,2.27,4.06,3.9,5.61c1.63,1.55,3.43,2.8,5.4,3.77c1.97,0.97,4.05,1.64,6.26,2.03c2.21,0.39,4.4,0.51,6.58,0.39
			c2.06-0.07,4.07-0.42,6.04-1.06c1.97-0.65,3.83-1.53,5.58-2.66c1.76-1.13,3.36-2.48,4.81-4.06c1.45-1.58,2.66-3.37,3.63-5.36
			c0.48-1.03,0.89-2.13,1.23-3.29c0.33-1.16,0.51-2.3,0.54-3.43c0.03-1.13-0.12-2.24-0.45-3.33c-0.33-1.09-0.95-2.09-1.86-3
			c-0.67-0.71-1.44-1.29-2.32-1.74c-0.88-0.45-1.77-0.84-2.68-1.16c-1.09-0.32-2.09-0.48-3-0.48c-0.48-0.06-0.98-0.05-1.5,0.05
			c-0.51,0.1-1.01,0.08-1.5-0.05c-0.67-0.13-0.97-0.45-0.91-0.97c0-0.58,0.3-0.87,0.91-0.87v-0.1l0.27,0.1h0.91
			c1.27,0,2.54-0.08,3.81-0.24c1.27-0.16,2.51-0.4,3.72-0.72c4.24-1.16,8.14-3.29,11.71-6.38c3.45-3.03,6.19-6.73,8.22-11.11
			c2.03-4.38,3.34-8.89,3.95-13.53c0.54-4.77,0.09-9.41-1.36-13.92c-1.45-4.51-4.09-8.18-7.9-11.02c-1.94-1.42-3.99-2.51-6.17-3.29
			c-2.18-0.77-4.43-1.3-6.76-1.59c-2.33-0.29-4.66-0.37-6.99-0.24c-2.33,0.13-4.62,0.39-6.85,0.77c-2.6,0.45-5.22,1.18-7.85,2.17
			c-2.63,1-5.06,2.32-7.26,3.96c-2.21,1.64-4.1,3.62-5.68,5.94c-1.57,2.32-2.63,4.99-3.18,8.02c-0.48,2.9-0.33,5.75,0.45,8.55
			c0.79,2.8,2.24,5.17,4.36,7.1c1.03,0.9,2.13,1.64,3.31,2.22c1.18,0.58,2.41,1,3.68,1.26c0.42,0.07,0.82,0.11,1.18,0.15
			c0.36,0.03,0.73,0.05,1.09,0.05c0.3,0,0.62-0.02,0.95-0.05c0.33-0.03,0.62,0.08,0.86,0.34c0.3,0.32,0.38,0.68,0.23,1.06
			C365.73,184.87,365.44,185.07,365.02,185.07z M384.81,158.49c-0.79,5.03-1.86,9.94-3.22,14.74c-1.36,4.8-2.74,9.62-4.13,14.45
			c-1.15,3.87-2.33,7.65-3.54,11.36c-1.21,3.71-2.45,7.43-3.72,11.16c-0.73,2.26-1.51,4.46-2.36,6.62c-0.85,2.16-1.76,4.3-2.72,6.43
			c-0.18,0.39-0.38,0.84-0.59,1.35c-0.21,0.52-0.44,1.01-0.68,1.5c-0.24,0.48-0.54,0.9-0.91,1.26c-0.36,0.36-0.76,0.53-1.18,0.53
			c-0.67,0.07-1.15-0.06-1.45-0.39c-0.3-0.32-0.49-0.72-0.54-1.21c-0.06-0.48-0.06-1.01,0-1.59c0.06-0.58,0.12-1.06,0.18-1.45
			c0.54-3.61,1.25-7.14,2.13-10.58c0.88-3.45,1.8-6.91,2.77-10.39c1.39-4.83,2.86-9.62,4.4-14.35c1.54-4.74,3.1-9.49,4.68-14.26
			c0.73-2.13,1.48-4.24,2.27-6.33c0.79-2.09,1.6-4.17,2.45-6.23c0.3-0.84,0.67-1.84,1.09-3c0.42-1.16,1.06-1.93,1.91-2.32
			c0.85-0.32,1.62-0.19,2.32,0.39C384.64,156.75,384.93,157.52,384.81,158.49z"/>
		<path class="st1" d="M460.62,207.1c-0.91,2.06-1.88,4.06-2.91,5.99c-1.03,1.93-2.18,3.77-3.45,5.51
			c-1.27,1.74-2.68,3.33-4.22,4.78c-1.54,1.45-3.28,2.69-5.22,3.72c-1.82,1.03-3.72,1.77-5.72,2.22c-2,0.45-3.99,0.64-5.99,0.58
			c-2.12-0.07-3.96-0.74-5.54-2.03c-1.57-1.29-2.85-2.9-3.81-4.83c-1.09-2.19-1.79-4.51-2.09-6.96c-0.3-2.45-0.32-4.93-0.05-7.44
			c0.27-2.51,0.79-4.98,1.54-7.39c0.76-2.42,1.65-4.65,2.68-6.72c0.97-1.8,2.12-3.62,3.45-5.46c1.33-1.84,2.83-3.48,4.49-4.93
			c1.66-1.45,3.46-2.61,5.4-3.48c1.94-0.87,3.96-1.3,6.08-1.3c2,0,3.71,0.55,5.13,1.64c1.42,1.1,2.54,2.46,3.36,4.11
			c0.82,1.64,1.32,3.45,1.5,5.41c0.18,1.97,0.03,3.85-0.45,5.65c-0.48,1.87-1.2,3.71-2.13,5.51c-0.94,1.8-2.07,3.42-3.4,4.83
			c-1.33,1.42-2.81,2.59-4.45,3.53c-1.63,0.94-3.42,1.43-5.36,1.5c-1.88,0.13-3.68-0.19-5.4-0.97c-1.73-0.77-3.1-1.96-4.13-3.58
			c-0.48,1.87-0.88,3.74-1.18,5.61c-0.3,1.87-0.48,3.77-0.54,5.7c0,1.03,0.06,2.06,0.18,3.09c0.12,1.03,0.38,1.98,0.77,2.85
			c0.39,0.87,0.92,1.63,1.59,2.27c0.67,0.65,1.51,1.1,2.54,1.35c2.06,0.52,4.12,0.48,6.17-0.1c2.06-0.58,3.99-1.5,5.81-2.75
			c1.82-1.26,3.5-2.74,5.04-4.45c1.54-1.71,2.86-3.4,3.95-5.07c0.85-1.35,1.62-2.74,2.32-4.16c0.7-1.42,1.35-2.87,1.95-4.35
			c0.18-0.51,0.44-1.05,0.77-1.59c0.33-0.55,0.83-0.66,1.5-0.34c0.36,0.13,0.47,0.4,0.32,0.82
			C460.97,206.31,460.8,206.72,460.62,207.1z M438.01,208.26c2.12-0.32,3.95-1.29,5.49-2.9c1.54-1.61,2.8-3.35,3.77-5.22
			c0.54-1.03,1.01-2.05,1.41-3.04c0.39-1,0.77-2.04,1.14-3.14c0.36-1.09,0.71-2.22,1.04-3.38c0.33-1.16,0.5-2.32,0.5-3.48
			c0-1.74-0.53-3.14-1.59-4.2c-1.06-1.06-2.44-1.53-4.13-1.4c-1.03,0.13-1.98,0.48-2.86,1.06c-0.88,0.58-1.68,1.29-2.41,2.13
			c-0.73,0.84-1.38,1.74-1.95,2.71c-0.58,0.97-1.11,1.87-1.59,2.71c-2.3,4.12-4.24,8.57-5.81,13.34l-0.18,0.48
			c0.54,1.42,1.48,2.55,2.81,3.38C434.99,208.13,436.44,208.46,438.01,208.26z"/>
		<path class="st1" d="M514.46,207.01c-1.09,2.06-2.2,4.14-3.32,6.23c-1.12,2.09-2.35,4.12-3.68,6.09c-1.33,1.97-2.76,3.8-4.27,5.51
			c-1.51,1.71-3.21,3.21-5.08,4.49c-0.67,0.51-1.36,0.95-2.09,1.3c-0.73,0.35-1.44,0.56-2.14,0.63c-0.7,0.06-1.38-0.05-2.04-0.34
			c-0.67-0.29-1.3-0.85-1.91-1.69c-0.67-0.84-1.2-1.8-1.59-2.9c-0.4-1.09-0.68-2.24-0.86-3.43c-0.18-1.19-0.29-2.38-0.32-3.58
			c-0.03-1.19-0.01-2.33,0.04-3.43c0-0.45,0.01-0.89,0.05-1.3c0.03-0.42,0.08-0.89,0.13-1.4c-0.85,1.42-1.69,2.79-2.54,4.11
			c-0.85,1.32-1.73,2.63-2.63,3.91c-0.97,1.35-2.22,2.8-3.77,4.35c-1.54,1.55-3.18,2.74-4.9,3.58c-1.73,0.84-3.42,1.11-5.08,0.82
			c-1.66-0.29-3.13-1.59-4.4-3.91c-1.15-2.06-1.86-4.28-2.13-6.67c-0.27-2.38-0.26-4.82,0.05-7.3c0.3-2.48,0.8-4.9,1.5-7.25
			c0.69-2.35,1.47-4.56,2.32-6.62c0.85-1.93,1.85-3.93,3-5.99c1.15-2.06,2.47-3.96,3.95-5.7c1.48-1.74,3.13-3.22,4.95-4.45
			c1.82-1.22,3.81-2.03,5.99-2.42c2.3-0.39,4.39,0,6.27,1.16c1.87,1.16,3.15,2.93,3.81,5.32c0.12,0.52,0.21,1.03,0.27,1.55
			l0.18,1.55l1.09-1.93c0.42-0.77,0.95-1.64,1.59-2.61c0.64-0.97,1.35-1.87,2.14-2.71c0.78-0.84,1.63-1.53,2.54-2.08
			c0.91-0.55,1.87-0.79,2.91-0.72c0.78,0.07,1.1,0.43,0.95,1.11c-0.15,0.68-0.32,1.24-0.5,1.69c-0.36,0.97-0.74,1.92-1.14,2.85
			c-0.4,0.93-0.74,1.85-1.04,2.75c-0.97,2.77-1.89,5.53-2.77,8.26c-0.88,2.74-1.71,5.56-2.5,8.46l-1.45,5.22
			c-0.49,1.74-0.91,3.51-1.27,5.32c-0.18,0.9-0.4,1.85-0.64,2.85c-0.24,1-0.45,2-0.64,3c-0.18,1-0.3,2-0.36,3
			c-0.06,1-0.03,1.98,0.09,2.95c0.18,1.03,0.68,1.59,1.5,1.69c0.82,0.1,1.62-0.05,2.41-0.44c1.39-0.64,2.68-1.69,3.86-3.14
			c1.18-1.45,2.23-2.79,3.13-4.01c1.09-1.48,2.12-3.01,3.09-4.59c0.97-1.58,1.87-3.2,2.72-4.88c0.48-0.9,0.95-1.77,1.41-2.61
			c0.45-0.84,0.92-1.71,1.41-2.61c0.12-0.26,0.3-0.42,0.54-0.48c0.24-0.06,0.48-0.03,0.73,0.1c0.24,0.13,0.41,0.32,0.5,0.58
			C514.6,206.49,514.58,206.75,514.46,207.01z M492.67,192.61c0.18-0.9,0.27-1.87,0.27-2.9c0-1.03-0.14-2.03-0.41-3
			c-0.27-0.97-0.67-1.84-1.18-2.61c-0.52-0.77-1.17-1.35-1.95-1.74c-1.76-0.84-3.39-0.8-4.91,0.1c-1.51,0.9-2.78,2.09-3.81,3.58
			c-1.27,1.93-2.42,3.98-3.45,6.14c-1.03,2.16-1.97,4.3-2.81,6.43c-0.97,2.32-1.85,4.66-2.63,7.01c-0.79,2.35-1.51,4.75-2.18,7.2
			c-0.3,1.1-0.58,2.19-0.82,3.29c-0.24,1.1-0.45,2.19-0.64,3.29c-0.24,1.1-0.44,2.29-0.59,3.58c-0.15,1.29,0.05,2.45,0.59,3.48
			c0.54,0.97,1.23,1.5,2.04,1.59c0.82,0.1,1.66-0.05,2.54-0.43c0.88-0.39,1.72-0.89,2.54-1.5c0.82-0.61,1.47-1.18,1.95-1.69
			c1.63-1.67,3.12-3.53,4.45-5.56c1.33-2.03,2.6-4.07,3.81-6.14l2.72-5.22c0.49-2.58,1.09-5.11,1.82-7.59
			C490.76,197.42,491.64,194.99,492.67,192.61z"/>
		<path class="st1" d="M566.21,207.01c-1.03,2.06-2.1,4.14-3.22,6.23c-1.12,2.09-2.35,4.12-3.68,6.09c-1.33,1.97-2.76,3.8-4.27,5.51
			c-1.51,1.71-3.21,3.21-5.08,4.49c-0.73,0.51-1.48,0.95-2.27,1.3c-0.79,0.35-1.56,0.55-2.32,0.58c-0.76,0.03-1.48-0.15-2.18-0.53
			c-0.7-0.39-1.35-1.03-1.95-1.93c-1.21-1.8-1.91-3.88-2.09-6.23c-0.18-2.35-0.21-4.59-0.09-6.72l0.36-3.67
			c0.12-1.09,0.27-2.22,0.45-3.38c-1.15,2.19-2.35,4.35-3.59,6.48c-1.24,2.13-2.56,4.19-3.95,6.19c-1.27,1.74-2.75,3.56-4.45,5.46
			c-1.69,1.9-3.54,3.24-5.54,4.01c-1.63,0.64-3.1,0.55-4.4-0.29c-1.3-0.84-2.22-2.09-2.77-3.77c-0.73-2.25-1.03-4.61-0.91-7.06
			c0.12-2.45,0.42-4.8,0.91-7.06c0.48-2.51,1.09-4.98,1.82-7.39c0.73-2.42,1.54-4.82,2.45-7.2c0.85-2.32,1.75-4.62,2.72-6.91
			c0.97-2.29,2.06-4.53,3.27-6.72c0.48-0.9,0.98-1.77,1.5-2.61c0.51-0.84,1.1-1.64,1.77-2.42c0.67-0.71,1.44-0.9,2.32-0.58
			c0.88,0.32,1.38,0.97,1.5,1.93c0.06,0.84-0.05,1.72-0.32,2.66c-0.27,0.93-0.5,1.79-0.68,2.56c-0.6,2.38-1.33,4.83-2.18,7.35
			c-0.73,2.06-1.42,4.17-2.09,6.33c-0.67,2.16-1.36,4.3-2.09,6.43c-0.54,1.68-1.09,3.37-1.63,5.07c-0.54,1.71-1.06,3.43-1.54,5.17
			c-0.48,1.68-1.01,3.42-1.59,5.22c-0.58,1.8-0.8,3.54-0.68,5.22c0.06,0.97,0.44,1.47,1.14,1.5c0.7,0.03,1.47-0.15,2.32-0.53
			c0.85-0.39,1.65-0.87,2.41-1.45c0.76-0.58,1.26-1,1.5-1.26c1.57-1.67,3.03-3.53,4.36-5.56s2.6-4.07,3.81-6.14
			c2.3-3.93,4.48-8.15,6.54-12.66c0.67-2.45,1.44-4.85,2.32-7.2c0.88-2.35,1.8-4.69,2.77-7.01c0.18-0.45,0.48-1.24,0.91-2.37
			c0.42-1.13,0.92-2.17,1.5-3.14c0.57-0.97,1.23-1.67,1.95-2.13c0.73-0.45,1.48-0.19,2.27,0.77c0.3,0.39,0.48,0.82,0.54,1.3
			c0.06,0.48,0.05,0.98-0.05,1.5c-0.09,0.52-0.2,1.03-0.32,1.55c-0.12,0.52-0.21,0.97-0.27,1.35c-0.3,1.22-0.58,2.43-0.82,3.62
			c-0.24,1.19-0.52,2.4-0.82,3.62l-3.27,14.3l-2.27,10.05c-0.18,0.9-0.36,1.79-0.54,2.66c-0.18,0.87-0.33,1.76-0.45,2.66
			c-0.12,0.77-0.24,1.61-0.36,2.51c-0.12,0.9-0.03,1.71,0.27,2.42c0.18,0.52,0.48,0.85,0.91,1.01c0.42,0.16,0.89,0.19,1.41,0.1
			c0.51-0.1,1.01-0.26,1.5-0.48c0.48-0.22,0.88-0.43,1.18-0.63c1.21-1.03,2.34-2.19,3.4-3.48c1.06-1.29,2.04-2.58,2.95-3.87
			c1.03-1.48,2.01-3,2.95-4.54c0.94-1.55,1.83-3.12,2.68-4.74l2.45-4.54c0.3-0.58,0.73-0.71,1.27-0.39
			C566.39,205.98,566.51,206.43,566.21,207.01z"/>
		<path class="st1" d="M592,207.78c-0.85,1.93-1.77,4-2.77,6.19c-1,2.19-2.12,4.29-3.36,6.28c-1.24,2-2.63,3.82-4.18,5.46
			c-1.54,1.64-3.31,2.95-5.31,3.91c-1.45,0.71-2.85,1-4.18,0.87c-1.33-0.13-2.48-1.03-3.45-2.71c-1.09-2-1.63-4.27-1.63-6.81
			c0-2.54,0.09-4.94,0.27-7.2c0.3-2.71,0.71-5.4,1.23-8.07c0.51-2.67,1.01-5.36,1.5-8.07c0.85-4.51,1.74-9,2.68-13.48
			c0.94-4.48,2.04-8.94,3.31-13.39l0.36-1.26h-12.53c-0.3,0-0.57-0.1-0.82-0.29c-0.24-0.19-0.38-0.42-0.41-0.68
			c-0.03-0.26,0.02-0.48,0.14-0.68c0.12-0.19,0.39-0.29,0.82-0.29h13.35c1.15-3.8,2.42-7.44,3.81-10.92
			c0.97-2.25,2.04-4.4,3.22-6.43c1.18-2.03,2.65-3.85,4.4-5.46c0.42-0.39,0.97-0.84,1.63-1.35c0.67-0.51,1.38-0.93,2.13-1.26
			c0.76-0.32,1.51-0.5,2.27-0.53c0.76-0.03,1.44,0.24,2.04,0.82c0.66,0.71,0.97,1.55,0.91,2.51c-0.06,0.97-0.18,1.87-0.36,2.71
			c-0.3,1.22-0.64,2.43-1,3.62c-0.36,1.19-0.79,2.34-1.27,3.43c-0.85,2.19-1.74,4.35-2.68,6.48c-0.94,2.13-1.92,4.25-2.95,6.38
			h17.43c0.6,0,0.91,0.32,0.91,0.97c0,0.65-0.3,0.97-0.91,0.97h-18.43c-1.03,2.19-2.09,4.35-3.18,6.48
			c-1.09,2.13-2.15,4.25-3.18,6.38l-2.18,4.25c-0.48,1.68-0.92,3.32-1.32,4.93c-0.39,1.61-0.8,3.25-1.23,4.93
			c-1.03,3.8-2.07,7.62-3.13,11.45c-1.06,3.83-1.83,7.72-2.32,11.65c-0.12,0.97-0.21,1.97-0.27,3c-0.06,1.03,0.03,2.03,0.27,3
			c0.24,0.71,0.56,1.21,0.95,1.5c0.39,0.29,0.92,0.47,1.59,0.53c1.09,0.19,2.1,0.03,3.04-0.48c0.94-0.51,1.83-1.19,2.68-2.03
			c0.85-0.84,1.6-1.76,2.27-2.75c0.67-1,1.27-1.88,1.82-2.66c0.91-1.42,1.76-2.87,2.54-4.35c0.79-1.48,1.51-2.96,2.18-4.45
			c0.24-0.58,0.47-1.24,0.68-1.98c0.21-0.74,0.5-1.37,0.86-1.88c0.12-0.32,0.3-0.51,0.54-0.58c0.24-0.06,0.48-0.05,0.73,0.05
			c0.24,0.1,0.41,0.27,0.5,0.53C592.13,207.26,592.12,207.52,592,207.78z M587,169.51h-2.45c-0.6,2-1.2,3.98-1.77,5.94
			c-0.58,1.97-1.13,3.95-1.68,5.94c1.03-1.93,2.03-3.88,3-5.85C585.07,173.58,586.03,171.57,587,169.51z M592.72,155.78
			c0.36-0.97,0.71-1.95,1.04-2.95c0.33-1,0.62-2.01,0.86-3.04c0.12-0.51,0.24-1.01,0.36-1.5c0.12-0.48,0.21-0.98,0.27-1.5
			c0.06-0.45,0.05-0.84-0.05-1.16c-0.09-0.32-0.17-0.64-0.23-0.97c-0.12,0.13-0.41,0.34-0.86,0.63c-0.45,0.29-0.74,0.5-0.86,0.63
			c-0.67,0.9-1.21,1.9-1.63,3c-0.42,1.1-0.82,2.19-1.18,3.29c-0.85,2.32-1.68,4.62-2.5,6.91c-0.82,2.29-1.59,4.62-2.32,7.01
			c-0.24,0.64-0.39,1.13-0.45,1.45h2.63c0.85-1.93,1.69-3.88,2.54-5.85C591.21,159.76,592,157.78,592.72,155.78z"/>
		<path class="st1" d="M635.67,207.2c-0.85,1.93-1.88,3.71-3.09,5.32c-1.21,1.61-2.54,3.13-3.99,4.54c-1.45,1.42-3,2.72-4.63,3.91
			c-1.63,1.19-3.27,2.34-4.9,3.43c-0.48,1.61-0.95,3.19-1.41,4.74c-0.45,1.55-0.92,3.12-1.41,4.74c-1.51,4.83-3.1,9.63-4.77,14.4
			c-1.67,4.77-3.77,9.34-6.31,13.72c-1.09,1.93-2.35,3.77-3.77,5.51c-1.42,1.74-3.07,3.16-4.95,4.25c-2,1.09-4.11,1.56-6.36,1.4
			c-2.24-0.16-4.09-1.24-5.54-3.24c-1.09-1.48-1.78-3.11-2.09-4.88c-0.3-1.77-0.33-3.56-0.09-5.36c0.24-1.8,0.68-3.59,1.32-5.36
			c0.64-1.77,1.38-3.4,2.22-4.88c1.88-3.42,4.21-6.4,6.99-8.94c2.78-2.55,5.72-4.91,8.81-7.1c1.33-0.9,2.65-1.79,3.95-2.66
			c1.3-0.87,2.65-1.76,4.04-2.66c0.6-2.32,1.2-4.64,1.77-6.96c0.58-2.32,1.19-4.61,1.86-6.86c-0.79,1.22-1.79,2.51-3,3.87
			c-1.21,1.42-2.69,2.74-4.45,3.96c-1.76,1.22-3.54,2-5.36,2.32c-0.91,0.13-1.71,0.05-2.41-0.24c-0.7-0.29-1.32-0.72-1.86-1.3
			c-0.54-0.58-1-1.26-1.36-2.03c-0.36-0.77-0.64-1.58-0.82-2.42c-0.54-2.38-0.66-4.82-0.36-7.3c0.3-2.48,0.76-4.88,1.36-7.2
			c0.6-2.45,1.33-4.83,2.18-7.15c0.85-2.32,1.79-4.61,2.81-6.86c0.79-1.87,1.65-3.7,2.59-5.51c0.94-1.8,2.07-3.45,3.4-4.93
			c0.67-0.71,1.44-0.89,2.32-0.53c0.88,0.36,1.35,1.01,1.41,1.98c0.12,0.71,0.08,1.42-0.14,2.13c-0.21,0.71-0.38,1.42-0.5,2.13
			c-0.79,3.42-1.76,6.77-2.91,10.05s-2.24,6.6-3.27,9.95c-0.36,1.16-0.73,2.34-1.09,3.53c-0.36,1.19-0.7,2.43-1,3.72
			c-0.18,0.58-0.35,1.16-0.5,1.74c-0.15,0.58-0.29,1.16-0.41,1.74c-0.06,0.32-0.15,0.71-0.27,1.16c-0.12,0.45-0.23,0.93-0.32,1.45
			c-0.09,0.52-0.11,1-0.05,1.45c0.06,0.45,0.24,0.81,0.54,1.06c0.48,0.39,1.03,0.58,1.63,0.58c0.6,0,1.21-0.1,1.82-0.29
			c0.6-0.19,1.2-0.47,1.77-0.82c0.58-0.35,1.04-0.72,1.41-1.11c1.39-1.29,2.65-2.69,3.77-4.2c1.12-1.51,2.19-3.11,3.22-4.78
			c0.36-0.64,0.71-1.27,1.04-1.88c0.33-0.61,0.65-1.24,0.95-1.88l0.09-0.1c0.73-2.45,1.48-4.88,2.27-7.3
			c0.79-2.42,1.67-4.82,2.63-7.2c0.85-2.06,1.82-4.22,2.91-6.48c1.09-2.25,2.51-4.06,4.27-5.41c0.24-0.19,0.56-0.39,0.95-0.58
			c0.39-0.19,0.78-0.31,1.18-0.34c0.39-0.03,0.74,0.03,1.04,0.19c0.3,0.16,0.51,0.5,0.64,1.01c0.06,0.39-0.02,0.74-0.23,1.06
			c-0.21,0.32-0.53,0.52-0.95,0.58c0.12,0.13,0.06,0.42-0.18,0.87c-0.24,0.45-0.4,0.74-0.45,0.87c-0.67,1.74-1.2,3.5-1.59,5.27
			c-0.4,1.77-0.83,3.56-1.32,5.36c-1.15,4.58-2.3,9.1-3.45,13.58c-1.15,4.48-2.33,8.97-3.54,13.48l2.45-1.84
			c1.51-1.09,2.98-2.29,4.4-3.58c1.42-1.29,2.74-2.71,3.95-4.25c0.6-0.77,1.16-1.56,1.68-2.37c0.51-0.8,0.98-1.66,1.41-2.56
			c0.12-0.32,0.29-0.63,0.5-0.92c0.21-0.29,0.53-0.34,0.95-0.15C635.73,206.17,635.91,206.62,635.67,207.2z M592.81,243.35
			c-1.63,1.67-3.1,3.53-4.4,5.56c-1.3,2.03-2.35,4.17-3.13,6.43c-0.36,1.09-0.68,2.25-0.95,3.48c-0.27,1.22-0.39,2.43-0.36,3.62
			c0.03,1.19,0.23,2.37,0.59,3.53c0.36,1.16,0.97,2.16,1.82,3c0.79,0.84,1.67,1.35,2.63,1.55c0.97,0.19,1.92,0.18,2.86-0.05
			c0.94-0.23,1.86-0.65,2.77-1.26c0.91-0.61,1.69-1.3,2.36-2.08c1.57-1.74,2.77-3.69,3.59-5.85c0.82-2.16,1.56-4.37,2.22-6.62
			c1.15-4,2.22-7.97,3.22-11.94c1-3.96,2.01-7.94,3.04-11.94c-2.91,1.87-5.73,3.8-8.49,5.8
			C597.82,238.58,595.23,240.83,592.81,243.35z"/>
		<path class="st1" d="M716.38,163.8c1.69-1.42,2.82-3.17,3.36-5.27c0.54-2.09,0.3-4.17-0.73-6.23c-1.03-2-2.5-3.54-4.4-4.64
			c-1.91-1.09-3.92-1.45-6.04-1.06c-2.12,0.39-3.84,1.26-5.18,2.61c-1.33,1.35-2.35,2.95-3.04,4.78c-0.7,1.84-1.15,3.8-1.36,5.9
			c-0.21,2.09-0.26,4.11-0.14,6.04c0.3,5.09,0.88,10.13,1.73,15.13c0.85,4.99,1.48,10.04,1.91,15.13
			c0.42,5.03,0.48,10.08,0.18,15.17c-0.3,5.09-1.48,9.95-3.54,14.59c-2.06,4.64-4.98,8.33-8.76,11.07
			c-3.78,2.74-7.94,4.69-12.48,5.85c-2.24,0.58-4.54,1.03-6.9,1.35c-2.36,0.32-4.71,0.4-7.04,0.24c-2.33-0.16-4.6-0.58-6.81-1.26
			c-2.21-0.68-4.31-1.76-6.31-3.24c-2.66-1.93-4.78-4.25-6.36-6.96c-1.57-2.71-2.71-5.64-3.4-8.79c-0.7-3.16-0.94-6.41-0.73-9.76
			c0.21-3.35,0.8-6.6,1.77-9.76c0.97-3.16,2.28-6.12,3.95-8.89c1.67-2.77,3.65-5.15,5.95-7.15c1.69-1.48,3.54-2.72,5.54-3.72
			c2-1,4.09-1.72,6.26-2.17c2.18-0.45,4.37-0.63,6.58-0.53c2.21,0.1,4.37,0.5,6.49,1.21c2.12,0.71,4.05,1.79,5.81,3.24
			c1.75,1.45,3.21,3.21,4.36,5.27c1.15,2.06,1.91,4.16,2.27,6.28c0.12,0.52,0.18,0.9,0.18,1.16c0.12,0.52-0.08,0.87-0.59,1.06
			c-0.52,0.19-0.89,0.03-1.13-0.48c-0.24-0.39-0.36-0.85-0.36-1.4c0-0.55-0.06-1.05-0.18-1.5c-0.3-1.16-0.7-2.29-1.18-3.38
			c-0.48-1.09-1.06-2.09-1.73-3c-1.39-1.87-3.04-3.37-4.95-4.49c-1.91-1.13-3.92-1.88-6.04-2.27c-4.54-0.77-8.93-0.39-13.17,1.16
			c-4.24,1.55-7.84,4.16-10.8,7.83c-1.94,2.32-3.51,4.99-4.72,8.02c-1.21,3.03-2.06,6.17-2.54,9.42c-0.48,3.25-0.56,6.52-0.23,9.81
			c0.33,3.29,1.12,6.33,2.36,9.13c1.24,2.8,2.97,5.27,5.17,7.39c2.21,2.13,4.92,3.67,8.13,4.64c2.12,0.64,4.34,0.98,6.67,1.01
			c2.33,0.03,4.64-0.18,6.95-0.63c2.3-0.45,4.54-1.11,6.72-1.98c2.18-0.87,4.21-1.92,6.08-3.14c4.18-2.71,7.17-6.2,8.99-10.49
			c1.82-4.28,2.84-8.94,3.09-13.97c0.18-5.03-0.03-10-0.64-14.93c-0.61-4.93-1.15-9.91-1.63-14.93c-0.18-2.32-0.35-4.75-0.5-7.3
			c-0.15-2.54-0.17-5.07-0.05-7.59c0.12-2.51,0.44-4.98,0.95-7.39c0.51-2.42,1.32-4.69,2.41-6.81c0.97-1.8,2.21-3.4,3.72-4.78
			c1.51-1.38,3.16-2.42,4.95-3.09c1.78-0.68,3.63-0.93,5.54-0.77c1.91,0.16,3.74,0.89,5.49,2.17c1.76,1.29,3.12,2.98,4.09,5.07
			c0.97,2.09,1.27,4.27,0.91,6.52c-0.18,1.1-0.5,2.14-0.95,3.14c-0.45,1-1.01,1.92-1.68,2.75c-0.24,0.26-0.5,0.55-0.77,0.87
			c-0.27,0.32-0.59,0.48-0.95,0.48c-0.42,0-0.7-0.21-0.82-0.63C715.99,164.5,716.08,164.13,716.38,163.8z"/>
		<path class="st1" d="M729,181.2c0.12,1.8,0.06,3.61-0.18,5.41c-0.24,1.8-0.51,3.58-0.82,5.32c-0.24,1.1-0.45,2.21-0.64,3.33
			c-0.18,1.13-0.36,2.24-0.54,3.33c0.97-1.74,1.95-3.45,2.95-5.12c1-1.67,2.1-3.32,3.31-4.93c0.97-1.35,2.24-2.8,3.81-4.35
			c1.57-1.55,3.22-2.74,4.95-3.58c1.72-0.84,3.42-1.11,5.09-0.82c1.66,0.29,3.13,1.59,4.4,3.91c1.09,2.06,1.77,4.29,2.04,6.67
			c0.27,2.38,0.27,4.82,0,7.3c-0.27,2.48-0.77,4.91-1.5,7.3c-0.73,2.38-1.51,4.58-2.36,6.57c-0.85,1.93-1.83,3.93-2.95,5.99
			c-1.12,2.06-2.42,3.96-3.91,5.7c-1.48,1.74-3.13,3.22-4.95,4.45c-1.82,1.23-3.81,2.03-5.99,2.42c-2.3,0.39-4.39,0-6.26-1.16
			c-1.88-1.16-3.15-2.93-3.81-5.32c-0.12-0.26-0.18-0.48-0.18-0.68c-0.97,3.67-1.95,7.31-2.95,10.92c-1,3.61-2.07,7.25-3.22,10.92
			c-0.79,2.51-1.59,5.03-2.41,7.54c-0.82,2.51-1.68,4.99-2.59,7.44c-0.85,2.25-1.76,4.49-2.72,6.72c-0.97,2.22-2.15,4.33-3.54,6.33
			c-0.54,0.77-1.17,1.63-1.86,2.56c-0.7,0.93-1.45,1.79-2.27,2.56c-0.82,0.77-1.69,1.43-2.63,1.98c-0.94,0.55-1.89,0.82-2.86,0.82
			c-1.03,0-1.78-0.26-2.27-0.77c-0.48-0.52-0.8-1.16-0.95-1.93c-0.15-0.77-0.18-1.61-0.09-2.51c0.09-0.9,0.23-1.71,0.41-2.42
			c0.54-2.45,1.26-4.8,2.13-7.06c0.88-2.26,1.8-4.51,2.77-6.77c1.03-2.45,2.09-4.83,3.18-7.15c1.09-2.32,2.21-4.67,3.36-7.06
			c1.57-3.35,3.19-6.67,4.86-9.95c1.66-3.29,3.31-6.57,4.95-9.86c0.61-2.25,1.18-4.51,1.73-6.77l1.63-6.77
			c0.42-1.8,0.85-3.59,1.27-5.36c0.42-1.77,0.88-3.53,1.36-5.27c0.66-2.45,1.38-4.93,2.13-7.44c0.76-2.51,1.65-4.93,2.68-7.25
			c0.42-1.03,1.03-2.19,1.82-3.48l1.54-2.13c0.3-0.32,0.71-0.51,1.23-0.58C728.65,180.17,728.94,180.49,729,181.2z M704.4,244.41
			c-1.09,2.38-2.16,4.75-3.22,7.1c-1.06,2.35-2.07,4.75-3.04,7.2c-0.91,2.32-1.78,4.65-2.63,7.01c-0.85,2.35-1.51,4.75-2,7.2
			c-0.06,0.26-0.14,0.64-0.23,1.16c-0.09,0.51-0.15,1.05-0.18,1.59c-0.03,0.55,0,1.03,0.09,1.45c0.09,0.42,0.32,0.66,0.68,0.72
			c0.42,0.13,0.83-0.08,1.23-0.63c0.39-0.55,0.68-0.98,0.86-1.3c1.21-1.87,2.13-3.88,2.77-6.04c0.64-2.16,1.35-4.27,2.13-6.33
			c2.12-5.48,4.04-10.99,5.77-16.53c1.72-5.54,3.34-11.15,4.86-16.82C709,234.97,706.64,239.7,704.4,244.41z M726,227.4
			c1.76,0.84,3.39,0.81,4.9-0.1c1.51-0.9,2.78-2.09,3.81-3.58c1.27-1.93,2.42-3.98,3.45-6.14c1.03-2.16,1.97-4.3,2.81-6.43
			c0.91-2.32,1.77-4.65,2.59-7.01c0.82-2.35,1.56-4.75,2.23-7.2c0.3-1.09,0.56-2.19,0.77-3.29c0.21-1.09,0.44-2.19,0.68-3.29
			c0.24-1.09,0.44-2.29,0.59-3.58c0.15-1.29-0.05-2.45-0.59-3.48c-0.54-0.97-1.23-1.5-2.04-1.59c-0.82-0.1-1.67,0.05-2.54,0.43
			c-0.88,0.39-1.72,0.9-2.54,1.55c-0.82,0.65-1.47,1.19-1.95,1.64c-1.63,1.68-3.12,3.53-4.45,5.56c-1.33,2.03-2.6,4.08-3.81,6.14
			c-0.54,1.03-1.09,2.05-1.63,3.04c-0.54,1-1.06,2.05-1.54,3.14c-0.24,0.52-0.45,1.03-0.64,1.55c-0.18,0.52-0.39,1.03-0.64,1.55
			l-2,8.41l-1,4.06c-0.12,1.68,0.09,3.35,0.64,5.03C723.64,225.5,724.61,226.69,726,227.4z"/>
		<path class="st1" d="M813.98,207.01c-1.09,2.06-2.2,4.14-3.31,6.23c-1.12,2.09-2.35,4.12-3.68,6.09c-1.33,1.97-2.76,3.8-4.27,5.51
			c-1.51,1.71-3.21,3.21-5.08,4.49c-0.67,0.51-1.36,0.95-2.09,1.3c-0.73,0.35-1.44,0.56-2.13,0.63c-0.7,0.06-1.38-0.05-2.04-0.34
			c-0.67-0.29-1.3-0.85-1.91-1.69c-0.67-0.84-1.2-1.8-1.59-2.9c-0.39-1.09-0.68-2.24-0.86-3.43c-0.18-1.19-0.29-2.38-0.32-3.58
			c-0.03-1.19-0.01-2.33,0.05-3.43c0-0.45,0.01-0.89,0.05-1.3c0.03-0.42,0.08-0.89,0.14-1.4c-0.85,1.42-1.69,2.79-2.54,4.11
			c-0.85,1.32-1.73,2.63-2.63,3.91c-0.97,1.35-2.22,2.8-3.77,4.35c-1.54,1.55-3.18,2.74-4.9,3.58c-1.73,0.84-3.42,1.11-5.08,0.82
			c-1.66-0.29-3.13-1.59-4.4-3.91c-1.15-2.06-1.86-4.28-2.13-6.67c-0.27-2.38-0.26-4.82,0.05-7.3c0.3-2.48,0.8-4.9,1.5-7.25
			c0.7-2.35,1.47-4.56,2.32-6.62c0.85-1.93,1.85-3.93,3-5.99c1.15-2.06,2.47-3.96,3.95-5.7c1.48-1.74,3.13-3.22,4.95-4.45
			c1.82-1.22,3.81-2.03,5.99-2.42c2.3-0.39,4.39,0,6.27,1.16c1.87,1.16,3.15,2.93,3.81,5.32c0.12,0.52,0.21,1.03,0.27,1.55
			l0.18,1.55l1.09-1.93c0.42-0.77,0.95-1.64,1.59-2.61c0.64-0.97,1.35-1.87,2.13-2.71c0.79-0.84,1.63-1.53,2.54-2.08
			c0.91-0.55,1.87-0.79,2.91-0.72c0.78,0.07,1.1,0.43,0.95,1.11c-0.15,0.68-0.32,1.24-0.5,1.69c-0.36,0.97-0.74,1.92-1.13,2.85
			c-0.4,0.93-0.74,1.85-1.04,2.75c-0.97,2.77-1.89,5.53-2.77,8.26c-0.88,2.74-1.71,5.56-2.5,8.46l-1.45,5.22
			c-0.49,1.74-0.91,3.51-1.27,5.32c-0.18,0.9-0.4,1.85-0.64,2.85c-0.24,1-0.45,2-0.64,3c-0.18,1-0.3,2-0.36,3
			c-0.06,1-0.03,1.98,0.09,2.95c0.18,1.03,0.68,1.59,1.5,1.69c0.82,0.1,1.62-0.05,2.41-0.44c1.39-0.64,2.68-1.69,3.86-3.14
			c1.18-1.45,2.22-2.79,3.13-4.01c1.09-1.48,2.12-3.01,3.09-4.59c0.97-1.58,1.88-3.2,2.72-4.88c0.48-0.9,0.95-1.77,1.41-2.61
			c0.45-0.84,0.92-1.71,1.41-2.61c0.12-0.26,0.3-0.42,0.54-0.48c0.24-0.06,0.48-0.03,0.73,0.1c0.24,0.13,0.41,0.32,0.5,0.58
			C814.12,206.49,814.1,206.75,813.98,207.01z M792.19,192.61c0.18-0.9,0.27-1.87,0.27-2.9c0-1.03-0.14-2.03-0.41-3
			c-0.27-0.97-0.67-1.84-1.18-2.61c-0.52-0.77-1.17-1.35-1.95-1.74c-1.76-0.84-3.39-0.8-4.9,0.1c-1.51,0.9-2.78,2.09-3.81,3.58
			c-1.27,1.93-2.42,3.98-3.45,6.14c-1.03,2.16-1.97,4.3-2.81,6.43c-0.97,2.32-1.85,4.66-2.63,7.01c-0.79,2.35-1.51,4.75-2.18,7.2
			c-0.3,1.1-0.58,2.19-0.82,3.29c-0.24,1.1-0.45,2.19-0.64,3.29c-0.24,1.1-0.44,2.29-0.59,3.58c-0.15,1.29,0.05,2.45,0.59,3.48
			c0.54,0.97,1.23,1.5,2.04,1.59c0.82,0.1,1.67-0.05,2.54-0.43c0.88-0.39,1.73-0.89,2.54-1.5c0.82-0.61,1.47-1.18,1.95-1.69
			c1.63-1.67,3.12-3.53,4.45-5.56c1.33-2.03,2.6-4.07,3.81-6.14l2.72-5.22c0.48-2.58,1.09-5.11,1.82-7.59
			C790.29,197.42,791.16,194.99,792.19,192.61z"/>
	</g>
	<g>
		<path class="st0" d="M350.72,265.1c-5.94,0-10.75,4.81-10.75,10.75c0,5.94,4.81,10.75,10.75,10.75c5.94,0,10.75-4.81,10.75-10.75
			C361.47,269.91,356.66,265.1,350.72,265.1z"/>
		<path class="st0" d="M404.22,284.25c-3.85,0-6.97,3.12-6.97,6.97c0,3.85,3.12,6.97,6.97,6.97c3.85,0,6.97-3.12,6.97-6.97
			C411.2,287.37,408.07,284.25,404.22,284.25z"/>
		<path class="st0" d="M478.64,286.52c-3.02,0-5.46,2.44-5.46,5.46c0,3.02,2.44,5.46,5.46,5.46c3.01,0,5.46-2.44,5.46-5.46
			C484.1,288.96,481.66,286.52,478.64,286.52z"/>
		<path class="st0" d="M547.6,282.48c-3.02,0-5.46,2.44-5.46,5.46c0,3.01,2.44,5.46,5.46,5.46c3.02,0,5.46-2.44,5.46-5.46
			C553.06,284.93,550.61,282.48,547.6,282.48z"/>
		<path class="st0" d="M621.17,309.45c-3.15,0-5.71,2.56-5.71,5.71c0,3.15,2.56,5.71,5.71,5.71c3.15,0,5.71-2.56,5.71-5.71
			C626.88,312,624.33,309.45,621.17,309.45z"/>
		<path class="st0" d="M687.69,315.91c-2.37,0-4.28,1.92-4.28,4.28c0,2.37,1.92,4.28,4.28,4.28c2.37,0,4.28-1.92,4.28-4.28
			C691.98,317.83,690.06,315.91,687.69,315.91z"/>
		<path class="st0" d="M768.32,308.86c-2.37,0-4.28,1.92-4.28,4.28c0,2.37,1.92,4.28,4.28,4.28c2.37,0,4.28-1.92,4.28-4.28
			C772.61,310.78,770.69,308.86,768.32,308.86z"/>
		<circle class="st0" cx="826.78" cy="293.99" r="4.28"/>
		<circle class="st0" cx="873.14" cy="246.62" r="4.28"/>
		<path class="st0" d="M877.18,179.85c-2.37,0-4.28,1.92-4.28,4.28c0,2.37,1.92,4.28,4.28,4.28c2.37,0,4.28-1.92,4.28-4.28
			C881.46,181.77,879.54,179.85,877.18,179.85z"/>
		<circle class="st0" cx="840.89" cy="138.78" r="4.28"/>
		<circle class="st0" cx="792.51" cy="153.9" r="4.28"/>
	</g>
</g>
<g id="Logo">
</g>
</svg>
